<mxfile host="app.diagrams.net" modified="2023-10-20T09:25:24.270Z" agent="Mozilla/5.0 (Macintosh; Intel Mac OS X 10_15_7) AppleWebKit/537.36 (KHTML, like Gecko) Chrome/102.0.5005.61 Safari/537.36" etag="NNEMXECzbyr8KC7xXeo6" version="21.6.5" type="device">
  <diagram id="C5RBs43oDa-KdzZeNtuy" name="Page-1">
    <mxGraphModel dx="1188" dy="546" grid="1" gridSize="10" guides="1" tooltips="1" connect="1" arrows="1" fold="1" page="1" pageScale="1" pageWidth="827" pageHeight="1169" math="0" shadow="0">
      <root>
        <mxCell id="WIyWlLk6GJQsqaUBKTNV-0" />
        <mxCell id="WIyWlLk6GJQsqaUBKTNV-1" parent="WIyWlLk6GJQsqaUBKTNV-0" />
        <mxCell id="CbuRB8H8sCCOuhlkq7PC-52" value="Start/End of the Sequence" style="rounded=1;whiteSpace=wrap;html=1;fontSize=12;glass=0;strokeWidth=1;shadow=0;strokeColor=#FF0000;" parent="WIyWlLk6GJQsqaUBKTNV-1" vertex="1">
          <mxGeometry x="90" y="250" width="120" height="40" as="geometry" />
        </mxCell>
        <mxCell id="CbuRB8H8sCCOuhlkq7PC-53" value="Processes/Actions" style="rounded=0;whiteSpace=wrap;html=1;fontSize=12;glass=0;strokeWidth=1;shadow=0;" parent="WIyWlLk6GJQsqaUBKTNV-1" vertex="1">
          <mxGeometry x="90" y="250" width="120" height="40" as="geometry" />
        </mxCell>
        <mxCell id="CbuRB8H8sCCOuhlkq7PC-54" value="Decisions" style="rhombus;whiteSpace=wrap;html=1;" parent="WIyWlLk6GJQsqaUBKTNV-1" vertex="1">
          <mxGeometry x="110" y="300" width="80" height="70" as="geometry" />
        </mxCell>
        <mxCell id="CbuRB8H8sCCOuhlkq7PC-56" value="" style="shape=partialRectangle;whiteSpace=wrap;html=1;bottom=1;right=1;left=1;top=0;fillColor=none;routingCenterX=-0.5;rotation=90;" parent="WIyWlLk6GJQsqaUBKTNV-1" vertex="1">
          <mxGeometry x="115" y="440" width="70" height="40" as="geometry" />
        </mxCell>
        <mxCell id="CbuRB8H8sCCOuhlkq7PC-57" value="Additional Information" style="text;html=1;strokeColor=none;fillColor=none;align=center;verticalAlign=middle;whiteSpace=wrap;rounded=0;" parent="WIyWlLk6GJQsqaUBKTNV-1" vertex="1">
          <mxGeometry x="120" y="390" width="60" height="30" as="geometry" />
        </mxCell>
        <mxCell id="CbuRB8H8sCCOuhlkq7PC-66" value="" style="verticalLabelPosition=bottom;verticalAlign=top;html=1;shape=card;whiteSpace=wrap;size=20;arcSize=12;align=center;" parent="WIyWlLk6GJQsqaUBKTNV-1" vertex="1">
          <mxGeometry x="60" y="40" width="160" height="90" as="geometry" />
        </mxCell>
        <mxCell id="CbuRB8H8sCCOuhlkq7PC-67" value="Main Flow Version A" style="text;html=1;strokeColor=none;fillColor=none;align=center;verticalAlign=middle;whiteSpace=wrap;rounded=0;" parent="WIyWlLk6GJQsqaUBKTNV-1" vertex="1">
          <mxGeometry x="110" y="70" width="60" height="30" as="geometry" />
        </mxCell>
        <mxCell id="CbuRB8H8sCCOuhlkq7PC-68" value="&lt;b&gt;Legend:&lt;/b&gt;" style="text;html=1;strokeColor=none;fillColor=none;align=center;verticalAlign=middle;whiteSpace=wrap;rounded=0;" parent="WIyWlLk6GJQsqaUBKTNV-1" vertex="1">
          <mxGeometry x="120" y="160" width="60" height="30" as="geometry" />
        </mxCell>
        <mxCell id="CbuRB8H8sCCOuhlkq7PC-69" value="Not completely resolved Problems&amp;nbsp;" style="rounded=1;whiteSpace=wrap;html=1;fontSize=12;glass=0;strokeWidth=1;shadow=0;strokeColor=#FF0000;" parent="WIyWlLk6GJQsqaUBKTNV-1" vertex="1">
          <mxGeometry x="90" y="200" width="120" height="40" as="geometry" />
        </mxCell>
        <mxCell id="LhSZNDpT_gtZKrWg9iD4-0" value="DHBW Mail Server&amp;nbsp;" style="shape=cylinder3;whiteSpace=wrap;html=1;boundedLbl=1;backgroundOutline=1;size=15;" parent="WIyWlLk6GJQsqaUBKTNV-1" vertex="1">
          <mxGeometry x="270" y="40" width="100" height="100" as="geometry" />
        </mxCell>
        <mxCell id="LhSZNDpT_gtZKrWg9iD4-1" value="" style="outlineConnect=0;dashed=0;verticalLabelPosition=bottom;verticalAlign=top;align=center;html=1;shape=mxgraph.aws3.management_console;fillColor=#D2D3D3;gradientColor=none;" parent="WIyWlLk6GJQsqaUBKTNV-1" vertex="1">
          <mxGeometry x="530" y="47" width="80" height="86" as="geometry" />
        </mxCell>
        <mxCell id="LhSZNDpT_gtZKrWg9iD4-2" value="" style="shape=flexArrow;endArrow=classic;html=1;rounded=0;" parent="WIyWlLk6GJQsqaUBKTNV-1" edge="1">
          <mxGeometry width="50" height="50" relative="1" as="geometry">
            <mxPoint x="500" y="90" as="sourcePoint" />
            <mxPoint x="400" y="90" as="targetPoint" />
          </mxGeometry>
        </mxCell>
        <mxCell id="LhSZNDpT_gtZKrWg9iD4-3" value="Service pulls mails from Mail Server&amp;nbsp;" style="text;html=1;strokeColor=none;fillColor=none;align=center;verticalAlign=middle;whiteSpace=wrap;rounded=0;" parent="WIyWlLk6GJQsqaUBKTNV-1" vertex="1">
          <mxGeometry x="390" y="40" width="130" height="30" as="geometry" />
        </mxCell>
        <mxCell id="LhSZNDpT_gtZKrWg9iD4-4" value="Client" style="text;html=1;strokeColor=none;fillColor=none;align=center;verticalAlign=middle;whiteSpace=wrap;rounded=0;" parent="WIyWlLk6GJQsqaUBKTNV-1" vertex="1">
          <mxGeometry x="540" y="140" width="60" height="30" as="geometry" />
        </mxCell>
        <mxCell id="LhSZNDpT_gtZKrWg9iD4-5" value="Service filters mails by &quot;Betreff&quot;" style="rounded=0;whiteSpace=wrap;html=1;fontSize=12;glass=0;strokeWidth=1;shadow=0;" parent="WIyWlLk6GJQsqaUBKTNV-1" vertex="1">
          <mxGeometry x="510" y="210" width="120" height="40" as="geometry" />
        </mxCell>
        <mxCell id="LhSZNDpT_gtZKrWg9iD4-6" value="&lt;font color=&quot;#ff3333&quot;&gt;SMTP/IMAP&lt;/font&gt;" style="text;html=1;strokeColor=none;fillColor=none;align=center;verticalAlign=middle;whiteSpace=wrap;rounded=0;" parent="WIyWlLk6GJQsqaUBKTNV-1" vertex="1">
          <mxGeometry x="425" y="103" width="60" height="30" as="geometry" />
        </mxCell>
        <mxCell id="LhSZNDpT_gtZKrWg9iD4-8" value="" style="shape=flexArrow;endArrow=classic;html=1;rounded=0;entryX=0.5;entryY=0;entryDx=0;entryDy=0;" parent="WIyWlLk6GJQsqaUBKTNV-1" target="LhSZNDpT_gtZKrWg9iD4-5" edge="1">
          <mxGeometry width="50" height="50" relative="1" as="geometry">
            <mxPoint x="570" y="170" as="sourcePoint" />
            <mxPoint x="470" y="170" as="targetPoint" />
          </mxGeometry>
        </mxCell>
        <mxCell id="LhSZNDpT_gtZKrWg9iD4-10" value="Mail &lt;br&gt;relevant?" style="rhombus;whiteSpace=wrap;html=1;" parent="WIyWlLk6GJQsqaUBKTNV-1" vertex="1">
          <mxGeometry x="530" y="290" width="80" height="80" as="geometry" />
        </mxCell>
        <mxCell id="LhSZNDpT_gtZKrWg9iD4-11" value="" style="shape=flexArrow;endArrow=classic;html=1;rounded=0;entryX=0.5;entryY=0;entryDx=0;entryDy=0;" parent="WIyWlLk6GJQsqaUBKTNV-1" target="LhSZNDpT_gtZKrWg9iD4-10" edge="1">
          <mxGeometry width="50" height="50" relative="1" as="geometry">
            <mxPoint x="569.5" y="249" as="sourcePoint" />
            <mxPoint x="569.5" y="279" as="targetPoint" />
          </mxGeometry>
        </mxCell>
        <mxCell id="LhSZNDpT_gtZKrWg9iD4-13" value="Ignore Mail" style="rounded=0;whiteSpace=wrap;html=1;fontSize=12;glass=0;strokeWidth=1;shadow=0;" parent="WIyWlLk6GJQsqaUBKTNV-1" vertex="1">
          <mxGeometry x="260" y="310" width="120" height="40" as="geometry" />
        </mxCell>
        <mxCell id="LhSZNDpT_gtZKrWg9iD4-14" value="" style="shape=flexArrow;endArrow=classic;html=1;rounded=0;" parent="WIyWlLk6GJQsqaUBKTNV-1" edge="1">
          <mxGeometry width="50" height="50" relative="1" as="geometry">
            <mxPoint x="527" y="330" as="sourcePoint" />
            <mxPoint x="387" y="330" as="targetPoint" />
          </mxGeometry>
        </mxCell>
        <mxCell id="LhSZNDpT_gtZKrWg9iD4-15" value="No" style="text;html=1;strokeColor=none;fillColor=none;align=center;verticalAlign=middle;whiteSpace=wrap;rounded=0;" parent="WIyWlLk6GJQsqaUBKTNV-1" vertex="1">
          <mxGeometry x="440" y="290" width="60" height="30" as="geometry" />
        </mxCell>
        <mxCell id="LhSZNDpT_gtZKrWg9iD4-16" value="" style="shape=flexArrow;endArrow=classic;html=1;rounded=0;entryX=0.5;entryY=1;entryDx=0;entryDy=0;entryPerimeter=0;" parent="WIyWlLk6GJQsqaUBKTNV-1" target="LhSZNDpT_gtZKrWg9iD4-0" edge="1">
          <mxGeometry width="50" height="50" relative="1" as="geometry">
            <mxPoint x="320" y="304.5" as="sourcePoint" />
            <mxPoint x="180" y="304.5" as="targetPoint" />
          </mxGeometry>
        </mxCell>
        <mxCell id="LhSZNDpT_gtZKrWg9iD4-18" value="" style="shape=flexArrow;endArrow=classic;html=1;rounded=0;entryX=0.5;entryY=0;entryDx=0;entryDy=0;" parent="WIyWlLk6GJQsqaUBKTNV-1" edge="1">
          <mxGeometry width="50" height="50" relative="1" as="geometry">
            <mxPoint x="569.5" y="379" as="sourcePoint" />
            <mxPoint x="570" y="420" as="targetPoint" />
          </mxGeometry>
        </mxCell>
        <mxCell id="LhSZNDpT_gtZKrWg9iD4-19" value="Extract attachement .jpg, .png" style="rounded=0;whiteSpace=wrap;html=1;fontSize=12;glass=0;strokeWidth=1;shadow=0;" parent="WIyWlLk6GJQsqaUBKTNV-1" vertex="1">
          <mxGeometry x="510" y="430" width="120" height="40" as="geometry" />
        </mxCell>
        <mxCell id="LhSZNDpT_gtZKrWg9iD4-20" value="" style="shape=flexArrow;endArrow=classic;html=1;rounded=0;entryX=0.5;entryY=0;entryDx=0;entryDy=0;" parent="WIyWlLk6GJQsqaUBKTNV-1" edge="1">
          <mxGeometry width="50" height="50" relative="1" as="geometry">
            <mxPoint x="569.5" y="480" as="sourcePoint" />
            <mxPoint x="570" y="521" as="targetPoint" />
          </mxGeometry>
        </mxCell>
        <mxCell id="LhSZNDpT_gtZKrWg9iD4-22" value="Open CV Analyzes Signature List" style="rounded=0;whiteSpace=wrap;html=1;fontSize=12;glass=0;strokeWidth=1;shadow=0;strokeColor=#FF3333;" parent="WIyWlLk6GJQsqaUBKTNV-1" vertex="1">
          <mxGeometry x="510" y="530" width="120" height="40" as="geometry" />
        </mxCell>
        <mxCell id="LhSZNDpT_gtZKrWg9iD4-23" value="" style="shape=flexArrow;endArrow=classic;html=1;rounded=0;entryX=0.5;entryY=0;entryDx=0;entryDy=0;" parent="WIyWlLk6GJQsqaUBKTNV-1" edge="1">
          <mxGeometry width="50" height="50" relative="1" as="geometry">
            <mxPoint x="569.5" y="590" as="sourcePoint" />
            <mxPoint x="570" y="631" as="targetPoint" />
          </mxGeometry>
        </mxCell>
        <mxCell id="LhSZNDpT_gtZKrWg9iD4-28" value="Errors in Signature &lt;br&gt;List" style="rhombus;whiteSpace=wrap;html=1;" parent="WIyWlLk6GJQsqaUBKTNV-1" vertex="1">
          <mxGeometry x="530" y="640" width="80" height="80" as="geometry" />
        </mxCell>
        <mxCell id="LhSZNDpT_gtZKrWg9iD4-29" value="Signal to frontend, containing error&amp;nbsp;" style="rounded=0;whiteSpace=wrap;html=1;fontSize=12;glass=0;strokeWidth=1;shadow=0;" parent="WIyWlLk6GJQsqaUBKTNV-1" vertex="1">
          <mxGeometry x="260" y="660" width="120" height="40" as="geometry" />
        </mxCell>
        <mxCell id="LhSZNDpT_gtZKrWg9iD4-30" value="" style="shape=flexArrow;endArrow=classic;html=1;rounded=0;" parent="WIyWlLk6GJQsqaUBKTNV-1" edge="1">
          <mxGeometry width="50" height="50" relative="1" as="geometry">
            <mxPoint x="527" y="680" as="sourcePoint" />
            <mxPoint x="387" y="680" as="targetPoint" />
          </mxGeometry>
        </mxCell>
        <mxCell id="LhSZNDpT_gtZKrWg9iD4-31" value="Yes" style="text;html=1;strokeColor=none;fillColor=none;align=center;verticalAlign=middle;whiteSpace=wrap;rounded=0;" parent="WIyWlLk6GJQsqaUBKTNV-1" vertex="1">
          <mxGeometry x="440" y="640" width="60" height="30" as="geometry" />
        </mxCell>
        <mxCell id="LhSZNDpT_gtZKrWg9iD4-32" value="User Intervention" style="rounded=0;whiteSpace=wrap;html=1;fontSize=12;glass=0;strokeWidth=1;shadow=0;strokeColor=#FF3333;" parent="WIyWlLk6GJQsqaUBKTNV-1" vertex="1">
          <mxGeometry x="260" y="780" width="120" height="40" as="geometry" />
        </mxCell>
        <mxCell id="LhSZNDpT_gtZKrWg9iD4-33" value="" style="shape=flexArrow;endArrow=classic;html=1;rounded=0;entryX=0.5;entryY=0;entryDx=0;entryDy=0;" parent="WIyWlLk6GJQsqaUBKTNV-1" edge="1">
          <mxGeometry width="50" height="50" relative="1" as="geometry">
            <mxPoint x="319.5" y="730" as="sourcePoint" />
            <mxPoint x="320" y="771" as="targetPoint" />
          </mxGeometry>
        </mxCell>
        <mxCell id="LhSZNDpT_gtZKrWg9iD4-34" value="Actualize Database" style="rounded=0;whiteSpace=wrap;html=1;fontSize=12;glass=0;strokeWidth=1;shadow=0;strokeColor=#000000;" parent="WIyWlLk6GJQsqaUBKTNV-1" vertex="1">
          <mxGeometry x="510" y="780" width="120" height="40" as="geometry" />
        </mxCell>
        <mxCell id="LhSZNDpT_gtZKrWg9iD4-35" value="" style="shape=flexArrow;endArrow=classic;html=1;rounded=0;entryX=0.5;entryY=0;entryDx=0;entryDy=0;" parent="WIyWlLk6GJQsqaUBKTNV-1" edge="1">
          <mxGeometry width="50" height="50" relative="1" as="geometry">
            <mxPoint x="569.5" y="730" as="sourcePoint" />
            <mxPoint x="570" y="771" as="targetPoint" />
          </mxGeometry>
        </mxCell>
        <mxCell id="LhSZNDpT_gtZKrWg9iD4-36" value="Move &amp;amp; Mark Mail as Done&amp;nbsp;" style="rounded=0;whiteSpace=wrap;html=1;fontSize=12;glass=0;strokeWidth=1;shadow=0;strokeColor=#000000;" parent="WIyWlLk6GJQsqaUBKTNV-1" vertex="1">
          <mxGeometry x="510" y="880" width="120" height="40" as="geometry" />
        </mxCell>
        <mxCell id="LhSZNDpT_gtZKrWg9iD4-38" value="" style="shape=flexArrow;endArrow=classic;html=1;rounded=0;entryX=0.5;entryY=0;entryDx=0;entryDy=0;" parent="WIyWlLk6GJQsqaUBKTNV-1" edge="1">
          <mxGeometry width="50" height="50" relative="1" as="geometry">
            <mxPoint x="569.5" y="829" as="sourcePoint" />
            <mxPoint x="570" y="870" as="targetPoint" />
          </mxGeometry>
        </mxCell>
        <mxCell id="LhSZNDpT_gtZKrWg9iD4-40" value="" style="shape=flexArrow;endArrow=classic;html=1;rounded=0;entryX=0.5;entryY=0;entryDx=0;entryDy=0;" parent="WIyWlLk6GJQsqaUBKTNV-1" edge="1">
          <mxGeometry width="50" height="50" relative="1" as="geometry">
            <mxPoint x="569.5" y="940" as="sourcePoint" />
            <mxPoint x="570" y="981" as="targetPoint" />
          </mxGeometry>
        </mxCell>
        <mxCell id="LhSZNDpT_gtZKrWg9iD4-41" value="Pull Mails from DHBW Server&amp;nbsp;" style="rounded=0;whiteSpace=wrap;html=1;fontSize=12;glass=0;strokeWidth=1;shadow=0;strokeColor=#000000;" parent="WIyWlLk6GJQsqaUBKTNV-1" vertex="1">
          <mxGeometry x="510" y="1000" width="120" height="40" as="geometry" />
        </mxCell>
      </root>
    </mxGraphModel>
  </diagram>
</mxfile>
